<svg xmlns="http://www.w3.org/2000/svg" version="1.1" xmlns:xlink="http://www.w3.org/1999/xlink" xmlns:svgjs="http://svgjs.dev/svgjs" width="1440" height="560" preserveAspectRatio="none" viewBox="0 0 1440 560"><g mask="url(&quot;#SvgjsMask1000&quot;)" fill="none"><rect width="1440" height="560" x="0" y="0" fill="#0e2a47"></rect><path d="M-62.88 667.96L-62.88 667.96" stroke="#132e65" stroke-width="1.5"></path><path d="M-62.88 667.96L103.3 700.57" stroke="#132e65" stroke-width="1.5"></path><path d="M-62.88 667.96L196.19 687.53" stroke="#132e65" stroke-width="1.5"></path><path d="M-62.88 667.96L256.71 526.5" stroke="#132e65" stroke-width="1.5"></path><path d="M-62.88 667.96L83.45 338.14" stroke="#132e65" stroke-width="1.5"></path><path d="M-62.88 667.96L234.01 412.41" stroke="#132e65" stroke-width="1.5"></path><path d="M83.45 338.14L83.45 338.14" stroke="#132e65" stroke-width="1.5"></path><path d="M83.45 338.14L234.01 412.41" stroke="#132e65" stroke-width="1.5"></path><path d="M83.45 338.14L256.71 526.5" stroke="#132e65" stroke-width="1.5"></path><path d="M83.45 338.14L386.05 404.21" stroke="#132e65" stroke-width="1.5"></path><path d="M83.45 338.14L358.88 503.9" stroke="#132e65" stroke-width="1.5"></path><path d="M103.3 700.57L103.3 700.57" stroke="#132e65" stroke-width="1.5"></path><path d="M103.3 700.57L196.19 687.53" stroke="#132e65" stroke-width="1.5"></path><path d="M103.3 700.57L256.71 526.5" stroke="#132e65" stroke-width="1.5"></path><path d="M103.3 700.57L385.43 647.23" stroke="#132e65" stroke-width="1.5"></path><path d="M103.3 700.57L234.01 412.41" stroke="#132e65" stroke-width="1.5"></path><path d="M234.01 412.41L234.01 412.41" stroke="#132e65" stroke-width="1.5"></path><path d="M234.01 412.41L256.71 526.5" stroke="#132e65" stroke-width="1.5"></path><path d="M234.01 412.41L386.05 404.21" stroke="#132e65" stroke-width="1.5"></path><path d="M234.01 412.41L358.88 503.9" stroke="#132e65" stroke-width="1.5"></path><path d="M234.01 412.41L196.19 687.53" stroke="#132e65" stroke-width="1.5"></path><path d="M234.01 412.41L385.43 647.23" stroke="#132e65" stroke-width="1.5"></path><path d="M256.71 526.5L256.71 526.5" stroke="#132e65" stroke-width="1.5"></path><path d="M256.71 526.5L358.88 503.9" stroke="#132e65" stroke-width="1.5"></path><path d="M256.71 526.5L196.19 687.53" stroke="#132e65" stroke-width="1.5"></path><path d="M256.71 526.5L385.43 647.23" stroke="#132e65" stroke-width="1.5"></path><path d="M256.71 526.5L386.05 404.21" stroke="#132e65" stroke-width="1.5"></path><path d="M196.19 687.53L196.19 687.53" stroke="#132e65" stroke-width="1.5"></path><path d="M196.19 687.53L385.43 647.23" stroke="#132e65" stroke-width="1.5"></path><path d="M196.19 687.53L358.88 503.9" stroke="#132e65" stroke-width="1.5"></path><path d="M386.05 404.21L386.05 404.21" stroke="#132e65" stroke-width="1.5"></path><path d="M386.05 404.21L358.88 503.9" stroke="#132e65" stroke-width="1.5"></path><path d="M358.88 503.9L358.88 503.9" stroke="#132e65" stroke-width="1.5"></path><path d="M385.43 647.23L385.43 647.23" stroke="#132e65" stroke-width="1.5"></path><path d="M385.43 647.23L500.99 670.08" stroke="#132e65" stroke-width="1.5"></path><path d="M385.43 647.23L358.88 503.9" stroke="#132e65" stroke-width="1.5"></path><path d="M385.43 647.23L518 491.6" stroke="#132e65" stroke-width="1.5"></path><path d="M385.43 647.23L386.05 404.21" stroke="#132e65" stroke-width="1.5"></path><path d="M549.82 361.78L549.82 361.78" stroke="#132e65" stroke-width="1.5"></path><path d="M549.82 361.78L664.18 396.88" stroke="#132e65" stroke-width="1.5"></path><path d="M549.82 361.78L518 491.6" stroke="#132e65" stroke-width="1.5"></path><path d="M549.82 361.78L640.55 256.67" stroke="#132e65" stroke-width="1.5"></path><path d="M549.82 361.78L386.05 404.21" stroke="#132e65" stroke-width="1.5"></path><path d="M518 491.6L518 491.6" stroke="#132e65" stroke-width="1.5"></path><path d="M518 491.6L386.05 404.21" stroke="#132e65" stroke-width="1.5"></path><path d="M518 491.6L358.88 503.9" stroke="#132e65" stroke-width="1.5"></path><path d="M518 491.6L690.5 497.79" stroke="#132e65" stroke-width="1.5"></path><path d="M500.99 670.08L500.99 670.08" stroke="#132e65" stroke-width="1.5"></path><path d="M500.99 670.08L518 491.6" stroke="#132e65" stroke-width="1.5"></path><path d="M640.55 256.67L640.55 256.67" stroke="#132e65" stroke-width="1.5"></path><path d="M640.55 256.67L664.18 396.88" stroke="#132e65" stroke-width="1.5"></path><path d="M640.55 256.67L812.54 204.81" stroke="#132e65" stroke-width="1.5"></path><path d="M640.55 256.67L826.3 410.14" stroke="#132e65" stroke-width="1.5"></path><path d="M640.55 256.67L690.5 497.79" stroke="#132e65" stroke-width="1.5"></path><path d="M664.18 396.88L664.18 396.88" stroke="#132e65" stroke-width="1.5"></path><path d="M664.18 396.88L690.5 497.79" stroke="#132e65" stroke-width="1.5"></path><path d="M664.18 396.88L826.3 410.14" stroke="#132e65" stroke-width="1.5"></path><path d="M664.18 396.88L518 491.6" stroke="#132e65" stroke-width="1.5"></path><path d="M664.18 396.88L854.48 530.26" stroke="#132e65" stroke-width="1.5"></path><path d="M690.5 497.79L690.5 497.79" stroke="#132e65" stroke-width="1.5"></path><path d="M690.5 497.79L826.3 410.14" stroke="#132e65" stroke-width="1.5"></path><path d="M690.5 497.79L854.48 530.26" stroke="#132e65" stroke-width="1.5"></path><path d="M690.5 497.79L702.92 673.33" stroke="#132e65" stroke-width="1.5"></path><path d="M702.92 673.33L702.92 673.33" stroke="#132e65" stroke-width="1.5"></path><path d="M702.92 673.33L852.45 701.77" stroke="#132e65" stroke-width="1.5"></path><path d="M702.92 673.33L500.99 670.08" stroke="#132e65" stroke-width="1.5"></path><path d="M812.54 204.81L812.54 204.81" stroke="#132e65" stroke-width="1.5"></path><path d="M812.54 204.81L995.45 246.92" stroke="#132e65" stroke-width="1.5"></path><path d="M826.3 410.14L826.3 410.14" stroke="#132e65" stroke-width="1.5"></path><path d="M826.3 410.14L854.48 530.26" stroke="#132e65" stroke-width="1.5"></path><path d="M826.3 410.14L946.25 526.25" stroke="#132e65" stroke-width="1.5"></path><path d="M854.48 530.26L854.48 530.26" stroke="#132e65" stroke-width="1.5"></path><path d="M854.48 530.26L946.25 526.25" stroke="#132e65" stroke-width="1.5"></path><path d="M852.45 701.77L852.45 701.77" stroke="#132e65" stroke-width="1.5"></path><path d="M852.45 701.77L982.75 698.91" stroke="#132e65" stroke-width="1.5"></path><path d="M852.45 701.77L854.48 530.26" stroke="#132e65" stroke-width="1.5"></path><path d="M852.45 701.77L946.25 526.25" stroke="#132e65" stroke-width="1.5"></path><path d="M852.45 701.77L690.5 497.79" stroke="#132e65" stroke-width="1.5"></path><path d="M984.72 -86.18L984.72 -86.18" stroke="#132e65" stroke-width="1.5"></path><path d="M984.72 -86.18L975.67 65.51" stroke="#132e65" stroke-width="1.5"></path><path d="M984.72 -86.18L1162.04 -85.81" stroke="#132e65" stroke-width="1.5"></path><path d="M984.72 -86.18L1154.11 84.04" stroke="#132e65" stroke-width="1.5"></path><path d="M984.72 -86.18L1286.73 -107.85" stroke="#132e65" stroke-width="1.5"></path><path d="M984.72 -86.18L1250.38 63.9" stroke="#132e65" stroke-width="1.5"></path><path d="M984.72 -86.18L995.45 246.92" stroke="#132e65" stroke-width="1.5"></path><path d="M975.67 65.51L975.67 65.51" stroke="#132e65" stroke-width="1.5"></path><path d="M975.67 65.51L1154.11 84.04" stroke="#132e65" stroke-width="1.5"></path><path d="M975.67 65.51L995.45 246.92" stroke="#132e65" stroke-width="1.5"></path><path d="M995.45 246.92L995.45 246.92" stroke="#132e65" stroke-width="1.5"></path><path d="M995.45 246.92L1131.35 232.51" stroke="#132e65" stroke-width="1.5"></path><path d="M995.45 246.92L1125.59 400.51" stroke="#132e65" stroke-width="1.5"></path><path d="M995.45 246.92L1154.11 84.04" stroke="#132e65" stroke-width="1.5"></path><path d="M995.45 246.92L826.3 410.14" stroke="#132e65" stroke-width="1.5"></path><path d="M946.25 526.25L946.25 526.25" stroke="#132e65" stroke-width="1.5"></path><path d="M982.75 698.91L982.75 698.91" stroke="#132e65" stroke-width="1.5"></path><path d="M982.75 698.91L1156.58 674.08" stroke="#132e65" stroke-width="1.5"></path><path d="M982.75 698.91L946.25 526.25" stroke="#132e65" stroke-width="1.5"></path><path d="M982.75 698.91L854.48 530.26" stroke="#132e65" stroke-width="1.5"></path><path d="M982.75 698.91L1129.42 512.2" stroke="#132e65" stroke-width="1.5"></path><path d="M982.75 698.91L702.92 673.33" stroke="#132e65" stroke-width="1.5"></path><path d="M1162.04 -85.81L1162.04 -85.81" stroke="#132e65" stroke-width="1.5"></path><path d="M1162.04 -85.81L1286.73 -107.85" stroke="#132e65" stroke-width="1.5"></path><path d="M1162.04 -85.81L1154.11 84.04" stroke="#132e65" stroke-width="1.5"></path><path d="M1162.04 -85.81L1250.38 63.9" stroke="#132e65" stroke-width="1.5"></path><path d="M1162.04 -85.81L975.67 65.51" stroke="#132e65" stroke-width="1.5"></path><path d="M1162.04 -85.81L1427.49 39.7" stroke="#132e65" stroke-width="1.5"></path><path d="M1154.11 84.04L1154.11 84.04" stroke="#132e65" stroke-width="1.5"></path><path d="M1154.11 84.04L1250.38 63.9" stroke="#132e65" stroke-width="1.5"></path><path d="M1154.11 84.04L1131.35 232.51" stroke="#132e65" stroke-width="1.5"></path><path d="M1154.11 84.04L1279.1 259.51" stroke="#132e65" stroke-width="1.5"></path><path d="M1131.35 232.51L1131.35 232.51" stroke="#132e65" stroke-width="1.5"></path><path d="M1131.35 232.51L1279.1 259.51" stroke="#132e65" stroke-width="1.5"></path><path d="M1125.59 400.51L1125.59 400.51" stroke="#132e65" stroke-width="1.5"></path><path d="M1125.59 400.51L1129.42 512.2" stroke="#132e65" stroke-width="1.5"></path><path d="M1125.59 400.51L1131.35 232.51" stroke="#132e65" stroke-width="1.5"></path><path d="M1125.59 400.51L1244.44 556.09" stroke="#132e65" stroke-width="1.5"></path><path d="M1125.59 400.51L1279.1 259.51" stroke="#132e65" stroke-width="1.5"></path><path d="M1125.59 400.51L946.25 526.25" stroke="#132e65" stroke-width="1.5"></path><path d="M1129.42 512.2L1129.42 512.2" stroke="#132e65" stroke-width="1.5"></path><path d="M1129.42 512.2L1244.44 556.09" stroke="#132e65" stroke-width="1.5"></path><path d="M1129.42 512.2L1156.58 674.08" stroke="#132e65" stroke-width="1.5"></path><path d="M1129.42 512.2L946.25 526.25" stroke="#132e65" stroke-width="1.5"></path><path d="M1156.58 674.08L1156.58 674.08" stroke="#132e65" stroke-width="1.5"></path><path d="M1156.58 674.08L1291.99 692.1" stroke="#132e65" stroke-width="1.5"></path><path d="M1156.58 674.08L1244.44 556.09" stroke="#132e65" stroke-width="1.5"></path><path d="M1286.73 -107.85L1286.73 -107.85" stroke="#132e65" stroke-width="1.5"></path><path d="M1286.73 -107.85L1250.38 63.9" stroke="#132e65" stroke-width="1.5"></path><path d="M1250.38 63.9L1250.38 63.9" stroke="#132e65" stroke-width="1.5"></path><path d="M1250.38 63.9L1427.49 39.7" stroke="#132e65" stroke-width="1.5"></path><path d="M1250.38 63.9L1279.1 259.51" stroke="#132e65" stroke-width="1.5"></path><path d="M1279.1 259.51L1279.1 259.51" stroke="#132e65" stroke-width="1.5"></path><path d="M1279.1 259.51L1408.82 218.63" stroke="#132e65" stroke-width="1.5"></path><path d="M1279.1 259.51L1399.85 359.98" stroke="#132e65" stroke-width="1.5"></path><path d="M1244.44 556.09L1244.44 556.09" stroke="#132e65" stroke-width="1.5"></path><path d="M1244.44 556.09L1291.99 692.1" stroke="#132e65" stroke-width="1.5"></path><path d="M1244.44 556.09L1434.17 505.04" stroke="#132e65" stroke-width="1.5"></path><path d="M1291.99 692.1L1291.99 692.1" stroke="#132e65" stroke-width="1.5"></path><path d="M1291.99 692.1L1443.38 668.71" stroke="#132e65" stroke-width="1.5"></path><path d="M1291.99 692.1L1434.17 505.04" stroke="#132e65" stroke-width="1.5"></path><path d="M1458.3 -61.08L1458.3 -61.08" stroke="#132e65" stroke-width="1.5"></path><path d="M1458.3 -61.08L1427.49 39.7" stroke="#132e65" stroke-width="1.5"></path><path d="M1458.3 -61.08L1589.51 -73.01" stroke="#132e65" stroke-width="1.5"></path><path d="M1458.3 -61.08L1286.73 -107.85" stroke="#132e65" stroke-width="1.5"></path><path d="M1458.3 -61.08L1250.38 63.9" stroke="#132e65" stroke-width="1.5"></path><path d="M1458.3 -61.08L1408.82 218.63" stroke="#132e65" stroke-width="1.5"></path><path d="M1427.49 39.7L1427.49 39.7" stroke="#132e65" stroke-width="1.5"></path><path d="M1427.49 39.7L1408.82 218.63" stroke="#132e65" stroke-width="1.5"></path><path d="M1408.82 218.63L1408.82 218.63" stroke="#132e65" stroke-width="1.5"></path><path d="M1408.82 218.63L1537.84 235.86" stroke="#132e65" stroke-width="1.5"></path><path d="M1408.82 218.63L1399.85 359.98" stroke="#132e65" stroke-width="1.5"></path><path d="M1399.85 359.98L1399.85 359.98" stroke="#132e65" stroke-width="1.5"></path><path d="M1399.85 359.98L1434.17 505.04" stroke="#132e65" stroke-width="1.5"></path><path d="M1434.17 505.04L1434.17 505.04" stroke="#132e65" stroke-width="1.5"></path><path d="M1434.17 505.04L1556.89 521.39" stroke="#132e65" stroke-width="1.5"></path><path d="M1434.17 505.04L1443.38 668.71" stroke="#132e65" stroke-width="1.5"></path><path d="M1443.38 668.71L1443.38 668.71" stroke="#132e65" stroke-width="1.5"></path><path d="M1443.38 668.71L1545.29 671.18" stroke="#132e65" stroke-width="1.5"></path><path d="M1589.51 -73.01L1589.51 -73.01" stroke="#132e65" stroke-width="1.5"></path><path d="M1589.51 -73.01L1427.49 39.7" stroke="#132e65" stroke-width="1.5"></path><path d="M1589.51 -73.01L1286.73 -107.85" stroke="#132e65" stroke-width="1.5"></path><path d="M1537.84 235.86L1537.84 235.86" stroke="#132e65" stroke-width="1.5"></path><path d="M1537.84 235.86L1570.07 362.89" stroke="#132e65" stroke-width="1.5"></path><path d="M1537.84 235.86L1399.85 359.98" stroke="#132e65" stroke-width="1.5"></path><path d="M1570.07 362.89L1570.07 362.89" stroke="#132e65" stroke-width="1.5"></path><path d="M1570.07 362.89L1556.89 521.39" stroke="#132e65" stroke-width="1.5"></path><path d="M1570.07 362.89L1399.85 359.98" stroke="#132e65" stroke-width="1.5"></path><path d="M1556.89 521.39L1556.89 521.39" stroke="#132e65" stroke-width="1.5"></path><path d="M1556.89 521.39L1545.29 671.18" stroke="#132e65" stroke-width="1.5"></path><path d="M1556.89 521.39L1443.38 668.71" stroke="#132e65" stroke-width="1.5"></path><path d="M1545.29 671.18L1545.29 671.18" stroke="#132e65" stroke-width="1.5"></path><circle r="5" cx="-62.88" cy="667.96" fill="#132e65"></circle><circle r="5" cx="83.45" cy="338.14" fill="#132e65"></circle><circle r="5" cx="103.3" cy="700.57" fill="#132e65"></circle><circle r="5" cx="234.01" cy="412.41" fill="#132e65"></circle><circle r="5" cx="256.71" cy="526.5" fill="#132e65"></circle><circle r="5" cx="196.19" cy="687.53" fill="#132e65"></circle><circle r="5" cx="386.05" cy="404.21" fill="#132e65"></circle><circle r="5" cx="358.88" cy="503.9" fill="#132e65"></circle><circle r="5" cx="385.43" cy="647.23" fill="#132e65"></circle><circle r="5" cx="549.82" cy="361.78" fill="#132e65"></circle><circle r="5" cx="518" cy="491.6" fill="#132e65"></circle><circle r="5" cx="500.99" cy="670.08" fill="#132e65"></circle><circle r="5" cx="640.55" cy="256.67" fill="#132e65"></circle><circle r="5" cx="664.18" cy="396.88" fill="#132e65"></circle><circle r="5" cx="690.5" cy="497.79" fill="#132e65"></circle><circle r="5" cx="702.92" cy="673.33" fill="#132e65"></circle><circle r="5" cx="812.54" cy="204.81" fill="#132e65"></circle><circle r="5" cx="826.3" cy="410.14" fill="#132e65"></circle><circle r="5" cx="854.48" cy="530.26" fill="#132e65"></circle><circle r="5" cx="852.45" cy="701.77" fill="#132e65"></circle><circle r="5" cx="984.72" cy="-86.18" fill="#132e65"></circle><circle r="5" cx="975.67" cy="65.51" fill="#132e65"></circle><circle r="5" cx="995.45" cy="246.92" fill="#132e65"></circle><circle r="5" cx="946.25" cy="526.25" fill="#132e65"></circle><circle r="5" cx="982.75" cy="698.91" fill="#132e65"></circle><circle r="5" cx="1162.04" cy="-85.81" fill="#132e65"></circle><circle r="5" cx="1154.11" cy="84.04" fill="#132e65"></circle><circle r="5" cx="1131.35" cy="232.51" fill="#132e65"></circle><circle r="5" cx="1125.59" cy="400.51" fill="#132e65"></circle><circle r="5" cx="1129.42" cy="512.2" fill="#132e65"></circle><circle r="5" cx="1156.58" cy="674.08" fill="#132e65"></circle><circle r="5" cx="1286.73" cy="-107.85" fill="#132e65"></circle><circle r="5" cx="1250.38" cy="63.9" fill="#132e65"></circle><circle r="5" cx="1279.1" cy="259.51" fill="#132e65"></circle><circle r="5" cx="1244.44" cy="556.09" fill="#132e65"></circle><circle r="5" cx="1291.99" cy="692.1" fill="#132e65"></circle><circle r="5" cx="1458.3" cy="-61.08" fill="#132e65"></circle><circle r="5" cx="1427.49" cy="39.7" fill="#132e65"></circle><circle r="5" cx="1408.82" cy="218.63" fill="#132e65"></circle><circle r="5" cx="1399.85" cy="359.98" fill="#132e65"></circle><circle r="5" cx="1434.17" cy="505.04" fill="#132e65"></circle><circle r="5" cx="1443.38" cy="668.71" fill="#132e65"></circle><circle r="5" cx="1589.51" cy="-73.01" fill="#132e65"></circle><circle r="5" cx="1537.84" cy="235.86" fill="#132e65"></circle><circle r="5" cx="1570.07" cy="362.89" fill="#132e65"></circle><circle r="5" cx="1556.89" cy="521.39" fill="#132e65"></circle><circle r="5" cx="1545.29" cy="671.18" fill="#132e65"></circle><path d="M395.86 509.8L395.86 509.8" stroke="hsl(228.5, 77.2%, 51.5%)" stroke-width="1.5"></path><path d="M395.86 509.8L489.56 557.81" stroke="hsl(228.5, 77.2%, 51.5%)" stroke-width="1.5"></path><path d="M395.86 509.8L258.64 558.11" stroke="hsl(228.5, 77.2%, 51.5%)" stroke-width="1.5"></path><path d="M964.17 377.69L964.17 377.69" stroke="hsl(228.5, 77.2%, 51.5%)" stroke-width="1.5"></path><path d="M964.17 377.69L1103.02 361.32" stroke="hsl(228.5, 77.2%, 51.5%)" stroke-width="1.5"></path><path d="M964.17 377.69L956.95 535.91" stroke="hsl(228.5, 77.2%, 51.5%)" stroke-width="1.5"></path><path d="M964.17 377.69L804.19 411.47" stroke="hsl(228.5, 77.2%, 51.5%)" stroke-width="1.5"></path><path d="M964.17 377.69L1111.76 241.98" stroke="hsl(228.5, 77.2%, 51.5%)" stroke-width="1.5"></path><path d="M964.17 377.69L857.18 559.94" stroke="hsl(228.5, 77.2%, 51.5%)" stroke-width="1.5"></path><path d="M956.95 535.91L956.95 535.91" stroke="hsl(228.5, 77.2%, 51.5%)" stroke-width="1.5"></path><path d="M956.95 535.91L857.18 559.94" stroke="hsl(228.5, 77.2%, 51.5%)" stroke-width="1.5"></path><path d="M956.95 535.91L1104.69 547.15" stroke="hsl(228.5, 77.2%, 51.5%)" stroke-width="1.5"></path><path d="M956.95 535.91L837.56 662.35" stroke="hsl(228.5, 77.2%, 51.5%)" stroke-width="1.5"></path><path d="M1156.82 97.72L1156.82 97.72" stroke="hsl(228.5, 77.2%, 51.5%)" stroke-width="1.5"></path><path d="M1156.82 97.72L1266.01 38.06" stroke="hsl(228.5, 77.2%, 51.5%)" stroke-width="1.5"></path><path d="M1156.82 97.72L1111.76 241.98" stroke="hsl(228.5, 77.2%, 51.5%)" stroke-width="1.5"></path><path d="M1275.99 -37.89L1275.99 -37.89" stroke="hsl(228.5, 77.2%, 51.5%)" stroke-width="1.5"></path><path d="M1275.99 -37.89L1266.01 38.06" stroke="hsl(228.5, 77.2%, 51.5%)" stroke-width="1.5"></path><path d="M1275.99 -37.89L1393.46 -94.61" stroke="hsl(228.5, 77.2%, 51.5%)" stroke-width="1.5"></path><path d="M1275.99 -37.89L1156.82 97.72" stroke="hsl(228.5, 77.2%, 51.5%)" stroke-width="1.5"></path><path d="M1275.99 -37.89L1459.63 57.72" stroke="hsl(228.5, 77.2%, 51.5%)" stroke-width="1.5"></path><path d="M1275.99 -37.89L1285.69 225.77" stroke="hsl(228.5, 77.2%, 51.5%)" stroke-width="1.5"></path><path d="M1285.69 225.77L1285.69 225.77" stroke="hsl(228.5, 77.2%, 51.5%)" stroke-width="1.5"></path><path d="M1285.69 225.77L1406.43 218.62" stroke="hsl(228.5, 77.2%, 51.5%)" stroke-width="1.5"></path><path d="M1285.69 225.77L1111.76 241.98" stroke="hsl(228.5, 77.2%, 51.5%)" stroke-width="1.5"></path><path d="M1285.69 225.77L1404.9 354.07" stroke="hsl(228.5, 77.2%, 51.5%)" stroke-width="1.5"></path><path d="M1285.69 225.77L1156.82 97.72" stroke="hsl(228.5, 77.2%, 51.5%)" stroke-width="1.5"></path><path d="M1557.35 701.26L1557.35 701.26" stroke="hsl(228.5, 77.2%, 51.5%)" stroke-width="1.5"></path><path d="M1557.35 701.26L1603.91 545.21" stroke="hsl(228.5, 77.2%, 51.5%)" stroke-width="1.5"></path><path d="M1557.35 701.26L1397.52 651.24" stroke="hsl(228.5, 77.2%, 51.5%)" stroke-width="1.5"></path><path d="M1557.35 701.26L1390.03 532.02" stroke="hsl(228.5, 77.2%, 51.5%)" stroke-width="1.5"></path><path d="M-112.24 523.58L-112.24 523.58" stroke="hsl(228.5, 77.2%, 51.5%)" stroke-width="1.5"></path><path d="M-112.24 523.58L-89.56 651.04" stroke="hsl(228.5, 77.2%, 51.5%)" stroke-width="1.5"></path><path d="M-112.24 523.58L85.99 495.47" stroke="hsl(228.5, 77.2%, 51.5%)" stroke-width="1.5"></path><path d="M-112.24 523.58L47.14 675.03" stroke="hsl(228.5, 77.2%, 51.5%)" stroke-width="1.5"></path><path d="M-112.24 523.58L218.59 642.04" stroke="hsl(228.5, 77.2%, 51.5%)" stroke-width="1.5"></path><path d="M-112.24 523.58L258.64 558.11" stroke="hsl(228.5, 77.2%, 51.5%)" stroke-width="1.5"></path><path d="M-89.56 651.04L-89.56 651.04" stroke="hsl(228.5, 77.2%, 51.5%)" stroke-width="1.5"></path><path d="M-89.56 651.04L47.14 675.03" stroke="hsl(228.5, 77.2%, 51.5%)" stroke-width="1.5"></path><path d="M-89.56 651.04L85.99 495.47" stroke="hsl(228.5, 77.2%, 51.5%)" stroke-width="1.5"></path><path d="M-89.56 651.04L218.59 642.04" stroke="hsl(228.5, 77.2%, 51.5%)" stroke-width="1.5"></path><path d="M85.99 495.47L85.99 495.47" stroke="hsl(228.5, 77.2%, 51.5%)" stroke-width="1.5"></path><path d="M85.99 495.47L258.64 558.11" stroke="hsl(228.5, 77.2%, 51.5%)" stroke-width="1.5"></path><path d="M85.99 495.47L47.14 675.03" stroke="hsl(228.5, 77.2%, 51.5%)" stroke-width="1.5"></path><path d="M85.99 495.47L218.59 642.04" stroke="hsl(228.5, 77.2%, 51.5%)" stroke-width="1.5"></path><path d="M47.14 675.03L47.14 675.03" stroke="hsl(228.5, 77.2%, 51.5%)" stroke-width="1.5"></path><path d="M47.14 675.03L218.59 642.04" stroke="hsl(228.5, 77.2%, 51.5%)" stroke-width="1.5"></path><path d="M47.14 675.03L258.64 558.11" stroke="hsl(228.5, 77.2%, 51.5%)" stroke-width="1.5"></path><path d="M47.14 675.03L387.17 664.77" stroke="hsl(228.5, 77.2%, 51.5%)" stroke-width="1.5"></path><path d="M258.64 558.11L258.64 558.11" stroke="hsl(228.5, 77.2%, 51.5%)" stroke-width="1.5"></path><path d="M258.64 558.11L218.59 642.04" stroke="hsl(228.5, 77.2%, 51.5%)" stroke-width="1.5"></path><path d="M218.59 642.04L218.59 642.04" stroke="hsl(228.5, 77.2%, 51.5%)" stroke-width="1.5"></path><path d="M218.59 642.04L387.17 664.77" stroke="hsl(228.5, 77.2%, 51.5%)" stroke-width="1.5"></path><path d="M218.59 642.04L395.86 509.8" stroke="hsl(228.5, 77.2%, 51.5%)" stroke-width="1.5"></path><path d="M387.17 664.77L387.17 664.77" stroke="hsl(228.5, 77.2%, 51.5%)" stroke-width="1.5"></path><path d="M387.17 664.77L493.16 666.29" stroke="hsl(228.5, 77.2%, 51.5%)" stroke-width="1.5"></path><path d="M387.17 664.77L489.56 557.81" stroke="hsl(228.5, 77.2%, 51.5%)" stroke-width="1.5"></path><path d="M387.17 664.77L395.86 509.8" stroke="hsl(228.5, 77.2%, 51.5%)" stroke-width="1.5"></path><path d="M387.17 664.77L258.64 558.11" stroke="hsl(228.5, 77.2%, 51.5%)" stroke-width="1.5"></path><path d="M489.56 557.81L489.56 557.81" stroke="hsl(228.5, 77.2%, 51.5%)" stroke-width="1.5"></path><path d="M493.16 666.29L493.16 666.29" stroke="hsl(228.5, 77.2%, 51.5%)" stroke-width="1.5"></path><path d="M493.16 666.29L489.56 557.81" stroke="hsl(228.5, 77.2%, 51.5%)" stroke-width="1.5"></path><path d="M493.16 666.29L395.86 509.8" stroke="hsl(228.5, 77.2%, 51.5%)" stroke-width="1.5"></path><path d="M493.16 666.29L694.79 523.99" stroke="hsl(228.5, 77.2%, 51.5%)" stroke-width="1.5"></path><path d="M493.16 666.29L258.64 558.11" stroke="hsl(228.5, 77.2%, 51.5%)" stroke-width="1.5"></path><path d="M493.16 666.29L218.59 642.04" stroke="hsl(228.5, 77.2%, 51.5%)" stroke-width="1.5"></path><path d="M694.79 523.99L694.79 523.99" stroke="hsl(228.5, 77.2%, 51.5%)" stroke-width="1.5"></path><path d="M694.79 523.99L804.19 411.47" stroke="hsl(228.5, 77.2%, 51.5%)" stroke-width="1.5"></path><path d="M694.79 523.99L857.18 559.94" stroke="hsl(228.5, 77.2%, 51.5%)" stroke-width="1.5"></path><path d="M694.79 523.99L837.56 662.35" stroke="hsl(228.5, 77.2%, 51.5%)" stroke-width="1.5"></path><path d="M694.79 523.99L489.56 557.81" stroke="hsl(228.5, 77.2%, 51.5%)" stroke-width="1.5"></path><path d="M804.19 411.47L804.19 411.47" stroke="hsl(228.5, 77.2%, 51.5%)" stroke-width="1.5"></path><path d="M804.19 411.47L857.18 559.94" stroke="hsl(228.5, 77.2%, 51.5%)" stroke-width="1.5"></path><path d="M804.19 411.47L956.95 535.91" stroke="hsl(228.5, 77.2%, 51.5%)" stroke-width="1.5"></path><path d="M804.19 411.47L837.56 662.35" stroke="hsl(228.5, 77.2%, 51.5%)" stroke-width="1.5"></path><path d="M857.18 559.94L857.18 559.94" stroke="hsl(228.5, 77.2%, 51.5%)" stroke-width="1.5"></path><path d="M857.18 559.94L837.56 662.35" stroke="hsl(228.5, 77.2%, 51.5%)" stroke-width="1.5"></path><path d="M857.18 559.94L989.32 707.12" stroke="hsl(228.5, 77.2%, 51.5%)" stroke-width="1.5"></path><path d="M837.56 662.35L837.56 662.35" stroke="hsl(228.5, 77.2%, 51.5%)" stroke-width="1.5"></path><path d="M837.56 662.35L989.32 707.12" stroke="hsl(228.5, 77.2%, 51.5%)" stroke-width="1.5"></path><path d="M989.32 707.12L989.32 707.12" stroke="hsl(228.5, 77.2%, 51.5%)" stroke-width="1.5"></path><path d="M989.32 707.12L956.95 535.91" stroke="hsl(228.5, 77.2%, 51.5%)" stroke-width="1.5"></path><path d="M989.32 707.12L1104.69 547.15" stroke="hsl(228.5, 77.2%, 51.5%)" stroke-width="1.5"></path><path d="M989.32 707.12L1271.16 647.57" stroke="hsl(228.5, 77.2%, 51.5%)" stroke-width="1.5"></path><path d="M1111.76 241.98L1111.76 241.98" stroke="hsl(228.5, 77.2%, 51.5%)" stroke-width="1.5"></path><path d="M1111.76 241.98L1103.02 361.32" stroke="hsl(228.5, 77.2%, 51.5%)" stroke-width="1.5"></path><path d="M1111.76 241.98L1272.69 410.37" stroke="hsl(228.5, 77.2%, 51.5%)" stroke-width="1.5"></path><path d="M1111.76 241.98L1266.01 38.06" stroke="hsl(228.5, 77.2%, 51.5%)" stroke-width="1.5"></path><path d="M1103.02 361.32L1103.02 361.32" stroke="hsl(228.5, 77.2%, 51.5%)" stroke-width="1.5"></path><path d="M1103.02 361.32L1272.69 410.37" stroke="hsl(228.5, 77.2%, 51.5%)" stroke-width="1.5"></path><path d="M1103.02 361.32L1104.69 547.15" stroke="hsl(228.5, 77.2%, 51.5%)" stroke-width="1.5"></path><path d="M1104.69 547.15L1104.69 547.15" stroke="hsl(228.5, 77.2%, 51.5%)" stroke-width="1.5"></path><path d="M1104.69 547.15L1271.16 647.57" stroke="hsl(228.5, 77.2%, 51.5%)" stroke-width="1.5"></path><path d="M1266.01 38.06L1266.01 38.06" stroke="hsl(228.5, 77.2%, 51.5%)" stroke-width="1.5"></path><path d="M1266.01 38.06L1393.46 -94.61" stroke="hsl(228.5, 77.2%, 51.5%)" stroke-width="1.5"></path><path d="M1272.69 410.37L1272.69 410.37" stroke="hsl(228.5, 77.2%, 51.5%)" stroke-width="1.5"></path><path d="M1272.69 410.37L1404.9 354.07" stroke="hsl(228.5, 77.2%, 51.5%)" stroke-width="1.5"></path><path d="M1272.69 410.37L1390.03 532.02" stroke="hsl(228.5, 77.2%, 51.5%)" stroke-width="1.5"></path><path d="M1272.69 410.37L1285.69 225.77" stroke="hsl(228.5, 77.2%, 51.5%)" stroke-width="1.5"></path><path d="M1272.69 410.37L1104.69 547.15" stroke="hsl(228.5, 77.2%, 51.5%)" stroke-width="1.5"></path><path d="M1271.16 647.57L1271.16 647.57" stroke="hsl(228.5, 77.2%, 51.5%)" stroke-width="1.5"></path><path d="M1271.16 647.57L1397.52 651.24" stroke="hsl(228.5, 77.2%, 51.5%)" stroke-width="1.5"></path><path d="M1271.16 647.57L1390.03 532.02" stroke="hsl(228.5, 77.2%, 51.5%)" stroke-width="1.5"></path><path d="M1393.46 -94.61L1393.46 -94.61" stroke="hsl(228.5, 77.2%, 51.5%)" stroke-width="1.5"></path><path d="M1393.46 -94.61L1459.63 57.72" stroke="hsl(228.5, 77.2%, 51.5%)" stroke-width="1.5"></path><path d="M1459.63 57.72L1459.63 57.72" stroke="hsl(228.5, 77.2%, 51.5%)" stroke-width="1.5"></path><path d="M1459.63 57.72L1557.89 97.08" stroke="hsl(228.5, 77.2%, 51.5%)" stroke-width="1.5"></path><path d="M1459.63 57.72L1576.76 -45.69" stroke="hsl(228.5, 77.2%, 51.5%)" stroke-width="1.5"></path><path d="M1406.43 218.62L1406.43 218.62" stroke="hsl(228.5, 77.2%, 51.5%)" stroke-width="1.5"></path><path d="M1406.43 218.62L1404.9 354.07" stroke="hsl(228.5, 77.2%, 51.5%)" stroke-width="1.5"></path><path d="M1406.43 218.62L1459.63 57.72" stroke="hsl(228.5, 77.2%, 51.5%)" stroke-width="1.5"></path><path d="M1404.9 354.07L1404.9 354.07" stroke="hsl(228.5, 77.2%, 51.5%)" stroke-width="1.5"></path><path d="M1404.9 354.07L1545.76 348.09" stroke="hsl(228.5, 77.2%, 51.5%)" stroke-width="1.5"></path><path d="M1390.03 532.02L1390.03 532.02" stroke="hsl(228.5, 77.2%, 51.5%)" stroke-width="1.5"></path><path d="M1390.03 532.02L1397.52 651.24" stroke="hsl(228.5, 77.2%, 51.5%)" stroke-width="1.5"></path><path d="M1390.03 532.02L1404.9 354.07" stroke="hsl(228.5, 77.2%, 51.5%)" stroke-width="1.5"></path><path d="M1390.03 532.02L1603.91 545.21" stroke="hsl(228.5, 77.2%, 51.5%)" stroke-width="1.5"></path><path d="M1397.52 651.24L1397.52 651.24" stroke="hsl(228.5, 77.2%, 51.5%)" stroke-width="1.5"></path><path d="M1397.52 651.24L1603.91 545.21" stroke="hsl(228.5, 77.2%, 51.5%)" stroke-width="1.5"></path><path d="M1576.76 -45.69L1576.76 -45.69" stroke="hsl(228.5, 77.2%, 51.5%)" stroke-width="1.5"></path><path d="M1576.76 -45.69L1557.89 97.08" stroke="hsl(228.5, 77.2%, 51.5%)" stroke-width="1.5"></path><path d="M1576.76 -45.69L1393.46 -94.61" stroke="hsl(228.5, 77.2%, 51.5%)" stroke-width="1.5"></path><path d="M1576.76 -45.69L1592.63 238.57" stroke="hsl(228.5, 77.2%, 51.5%)" stroke-width="1.5"></path><path d="M1576.76 -45.69L1275.99 -37.89" stroke="hsl(228.5, 77.2%, 51.5%)" stroke-width="1.5"></path><path d="M1576.76 -45.69L1406.43 218.62" stroke="hsl(228.5, 77.2%, 51.5%)" stroke-width="1.5"></path><path d="M1557.89 97.08L1557.89 97.08" stroke="hsl(228.5, 77.2%, 51.5%)" stroke-width="1.5"></path><path d="M1557.89 97.08L1592.63 238.57" stroke="hsl(228.5, 77.2%, 51.5%)" stroke-width="1.5"></path><path d="M1557.89 97.08L1406.43 218.62" stroke="hsl(228.5, 77.2%, 51.5%)" stroke-width="1.5"></path><path d="M1557.89 97.08L1545.76 348.09" stroke="hsl(228.5, 77.2%, 51.5%)" stroke-width="1.5"></path><path d="M1592.63 238.57L1592.63 238.57" stroke="hsl(228.5, 77.2%, 51.5%)" stroke-width="1.5"></path><path d="M1592.63 238.57L1545.76 348.09" stroke="hsl(228.5, 77.2%, 51.5%)" stroke-width="1.5"></path><path d="M1592.63 238.57L1406.43 218.62" stroke="hsl(228.5, 77.2%, 51.5%)" stroke-width="1.5"></path><path d="M1592.63 238.57L1404.9 354.07" stroke="hsl(228.5, 77.2%, 51.5%)" stroke-width="1.5"></path><path d="M1592.63 238.57L1459.63 57.72" stroke="hsl(228.5, 77.2%, 51.5%)" stroke-width="1.5"></path><path d="M1545.76 348.09L1545.76 348.09" stroke="hsl(228.5, 77.2%, 51.5%)" stroke-width="1.5"></path><path d="M1545.76 348.09L1406.43 218.62" stroke="hsl(228.5, 77.2%, 51.5%)" stroke-width="1.5"></path><path d="M1603.91 545.21L1603.91 545.21" stroke="hsl(228.5, 77.2%, 51.5%)" stroke-width="1.5"></path><path d="M1603.91 545.21L1545.76 348.09" stroke="hsl(228.5, 77.2%, 51.5%)" stroke-width="1.5"></path><path d="M1603.91 545.21L1404.9 354.07" stroke="hsl(228.5, 77.2%, 51.5%)" stroke-width="1.5"></path><path d="M1603.91 545.21L1592.63 238.57" stroke="hsl(228.5, 77.2%, 51.5%)" stroke-width="1.5"></path><circle r="25" cx="395.86" cy="509.8" fill="url(&quot;#SvgjsRadialGradient1001&quot;)"></circle><circle r="25" cx="964.17" cy="377.69" fill="url(&quot;#SvgjsRadialGradient1001&quot;)"></circle><circle r="25" cx="956.95" cy="535.91" fill="url(&quot;#SvgjsRadialGradient1001&quot;)"></circle><circle r="25" cx="1156.82" cy="97.72" fill="url(&quot;#SvgjsRadialGradient1001&quot;)"></circle><circle r="25" cx="1275.99" cy="-37.89" fill="url(&quot;#SvgjsRadialGradient1001&quot;)"></circle><circle r="25" cx="1285.69" cy="225.77" fill="url(&quot;#SvgjsRadialGradient1001&quot;)"></circle><circle r="25" cx="1557.35" cy="701.26" fill="url(&quot;#SvgjsRadialGradient1001&quot;)"></circle><circle r="5" cx="-112.24" cy="523.58" fill="#8b9ad9"></circle><circle r="5" cx="-89.56" cy="651.04" fill="#8b9ad9"></circle><circle r="5" cx="85.99" cy="495.47" fill="#8b9ad9"></circle><circle r="5" cx="47.14" cy="675.03" fill="#8b9ad9"></circle><circle r="5" cx="258.64" cy="558.11" fill="#8b9ad9"></circle><circle r="5" cx="218.59" cy="642.04" fill="#8b9ad9"></circle><circle r="5" cx="387.17" cy="664.77" fill="#8b9ad9"></circle><circle r="5" cx="489.56" cy="557.81" fill="#8b9ad9"></circle><circle r="5" cx="493.16" cy="666.29" fill="#8b9ad9"></circle><circle r="5" cx="694.79" cy="523.99" fill="#8b9ad9"></circle><circle r="5" cx="804.19" cy="411.47" fill="#8b9ad9"></circle><circle r="5" cx="857.18" cy="559.94" fill="#8b9ad9"></circle><circle r="5" cx="837.56" cy="662.35" fill="#8b9ad9"></circle><circle r="5" cx="989.32" cy="707.12" fill="#8b9ad9"></circle><circle r="5" cx="1111.76" cy="241.98" fill="#8b9ad9"></circle><circle r="5" cx="1103.02" cy="361.32" fill="#8b9ad9"></circle><circle r="5" cx="1104.69" cy="547.15" fill="#8b9ad9"></circle><circle r="5" cx="1266.01" cy="38.06" fill="#8b9ad9"></circle><circle r="5" cx="1272.69" cy="410.37" fill="#8b9ad9"></circle><circle r="5" cx="1271.16" cy="647.57" fill="#8b9ad9"></circle><circle r="5" cx="1393.46" cy="-94.61" fill="#8b9ad9"></circle><circle r="5" cx="1459.63" cy="57.72" fill="#8b9ad9"></circle><circle r="5" cx="1406.43" cy="218.62" fill="#8b9ad9"></circle><circle r="5" cx="1404.9" cy="354.07" fill="#8b9ad9"></circle><circle r="5" cx="1390.03" cy="532.02" fill="#8b9ad9"></circle><circle r="5" cx="1397.52" cy="651.24" fill="#8b9ad9"></circle><circle r="5" cx="1576.76" cy="-45.69" fill="#8b9ad9"></circle><circle r="5" cx="1557.89" cy="97.08" fill="#8b9ad9"></circle><circle r="5" cx="1592.63" cy="238.57" fill="#8b9ad9"></circle><circle r="5" cx="1545.76" cy="348.09" fill="#8b9ad9"></circle><circle r="5" cx="1603.91" cy="545.21" fill="#8b9ad9"></circle></g><defs><mask id="SvgjsMask1000"><rect width="1440" height="560" fill="#ffffff"></rect></mask><radialGradient id="SvgjsRadialGradient1001"><stop stop-color="#ffffff" offset="0.1"></stop><stop stop-color="#1735b3" offset="0.2"></stop><stop stop-color="rgba(23, 53, 179, 0)" offset="1"></stop></radialGradient></defs></svg>